<svg width="75" height="30" viewBox="0 0 75 30" fill="none" xmlns="http://www.w3.org/2000/svg">
<g id="Group 1000013846">
<g id="Ellipse 7786" filter="url(#filter0_f_334_338)">
<ellipse cx="37.4699" cy="21.9792" rx="31.4689" ry="1.90721" fill="black"/>
</g>
<g id="Group 1000013618">
<path id="Vector" d="M65.1235 3.54285L68.3991 3.77529L69.4307 6.23483" stroke="black" stroke-miterlimit="10" stroke-linecap="round" stroke-linejoin="round"/>
<path id="Vector_2" d="M59.8883 20.0491L66.9757 18.9612C67.0395 18.9514 67.1037 18.947 67.1678 18.9388C67.4447 18.9037 68.2241 18.7057 68.2241 17.5911C68.2241 16.3825 68.2776 14.2584 68.2892 13.8125C68.2906 13.7558 68.289 13.7064 68.2826 13.6501C68.1772 12.7154 67.1187 3.76579 65.1234 2.58934C63.3615 1.54952 14.9788 1.44518 7.83125 1.5818C7.58376 1.58576 7.34541 1.676 7.15735 1.83693C6.9693 1.99787 6.84332 2.21941 6.80118 2.46331C6.5442 3.91082 6.06388 6.90558 6.014 9.32351C5.96229 11.8378 6.06655 15.5166 6.12026 17.1557C6.13702 17.6671 6.46088 18.115 6.93965 18.2954L11.315 19.944" fill="url(#paint0_linear_334_338)"/>
<path id="Vector_3" d="M63.6847 1.94614C64.9544 2.15183 65.9751 3.01701 66.4033 4.22986C66.932 5.72729 67.2238 8.41783 67.666 11.8075C67.666 11.8075 64.1335 14.2951 57.5596 8.03885L9.7809 8.93414C9.01351 8.94052 8.26239 8.67316 7.9068 7.99309C7.41544 7.05336 7.20284 4.78866 7.13867 1.66516C7.13867 1.66516 51.6468 -0.00410748 63.6847 1.94614Z" fill="#D9D9D9" stroke="#020202" stroke-miterlimit="10" stroke-linecap="round" stroke-linejoin="round"/>
<path id="Vector_4" d="M63.6847 1.94614C64.9544 2.15183 65.9751 3.01701 66.4033 4.22986C66.932 5.72729 67.2238 8.41783 67.666 11.8075C67.666 11.8075 64.1335 14.2951 57.5596 8.03885L9.7809 8.93414C9.01351 8.94052 8.26239 8.67316 7.9068 7.99309C7.41544 7.05336 7.20284 4.78866 7.13867 1.66516C7.13867 1.66516 51.6468 -0.00410748 63.6847 1.94614Z" fill="#D9D9D9" stroke="#020202" stroke-miterlimit="10" stroke-linecap="round" stroke-linejoin="round"/>
<path id="Vector_5" d="M18.0841 22.5608C16.2876 22.5608 14.8313 21.1044 14.8313 19.3079C14.8313 17.5115 16.2876 16.0551 18.0841 16.0551C19.8806 16.0551 21.3369 17.5115 21.3369 19.3079C21.3369 21.1044 19.8806 22.5608 18.0841 22.5608Z" fill="#D0CFCE"/>
<path id="Vector_6" d="M53.3234 22.5608C51.5269 22.5608 50.0705 21.1044 50.0705 19.3079C50.0705 17.5115 51.5269 16.0551 53.3234 16.0551C55.1198 16.0551 56.5762 17.5115 56.5762 19.3079C56.5762 21.1044 55.1198 22.5608 53.3234 22.5608Z" fill="#D0CFCE"/>
<path id="Vector 234251074" d="M57.8125 1.31787C57.8124 4.49655 57.8124 8.31096 58.1305 8.62883" stroke="#020202" stroke-miterlimit="10" stroke-linecap="round" stroke-linejoin="round"/>
<path id="Vector_7" d="M18.0841 22.5608C16.2876 22.5608 14.8313 21.1044 14.8313 19.3079C14.8313 17.5115 16.2876 16.0551 18.0841 16.0551C19.8806 16.0551 21.3369 17.5115 21.3369 19.3079C21.3369 21.1044 19.8806 22.5608 18.0841 22.5608Z" fill="white" stroke="#020202" stroke-miterlimit="10" stroke-linecap="round" stroke-linejoin="round"/>
<path id="Vector_8" d="M53.3234 22.5608C51.5269 22.5608 50.0705 21.1044 50.0705 19.3079C50.0705 17.5115 51.5269 16.0551 53.3234 16.0551C55.1198 16.0551 56.5762 17.5115 56.5762 19.3079C56.5762 21.1044 55.1198 22.5608 53.3234 22.5608Z" fill="white" stroke="#020202" stroke-miterlimit="10" stroke-linecap="round" stroke-linejoin="round"/>
</g>
</g>
<defs>
<filter id="filter0_f_334_338" x="0.000976562" y="14.072" width="74.9375" height="15.8144" filterUnits="userSpaceOnUse" color-interpolation-filters="sRGB">
<feFlood flood-opacity="0" result="BackgroundImageFix"/>
<feBlend mode="normal" in="SourceGraphic" in2="BackgroundImageFix" result="shape"/>
<feGaussianBlur stdDeviation="3" result="effect1_foregroundBlur_334_338"/>
</filter>
<linearGradient id="paint0_linear_334_338" x1="6.00001" y1="10.7463" x2="68.2914" y2="10.7463" gradientUnits="userSpaceOnUse">
<stop stop-color="#FF7C74"/>
<stop offset="1" stop-color="#CA3027"/>
</linearGradient>
</defs>
</svg>
