<svg width="75" height="30" viewBox="0 0 75 30" fill="none" xmlns="http://www.w3.org/2000/svg">
<g filter="url(#filter0_f_69_5824)">
<ellipse cx="37.4689" cy="21.9795" rx="31.4689" ry="1.90721" fill="black"/>
</g>
<path d="M65.1225 3.54297L68.3981 3.77541L69.4297 6.23496" stroke="black" stroke-miterlimit="10" stroke-linecap="round" stroke-linejoin="round"/>
<path d="M59.8883 20.0493L66.9757 18.9613C67.0395 18.9515 67.1037 18.9472 67.1678 18.939C67.4447 18.9038 68.2241 18.7059 68.2241 17.5913C68.2241 16.3827 68.2776 14.2586 68.2892 13.8127C68.2906 13.756 68.289 13.7066 68.2826 13.6502C68.1772 12.7156 67.1187 3.76597 65.1234 2.58953C63.3615 1.54971 14.9788 1.44536 7.83125 1.58198C7.58376 1.58594 7.34541 1.67618 7.15735 1.83712C6.9693 1.99805 6.84332 2.21959 6.80118 2.4635C6.5442 3.911 6.06388 6.90576 6.014 9.32369C5.96229 11.8379 6.06655 15.5168 6.12026 17.1559C6.13702 17.6672 6.46088 18.1152 6.93965 18.2956L11.315 19.9441" fill="url(#paint0_linear_69_5824)"/>
<path d="M63.6828 1.94614C64.9524 2.15183 65.9732 3.01701 66.4014 4.22986C66.9301 5.72729 67.2219 8.41783 67.664 11.8075C67.664 11.8075 64.1316 14.2951 57.5576 8.03885L9.77895 8.93414C9.01155 8.94052 8.26044 8.67316 7.90485 7.99309C7.41349 7.05336 7.20089 4.78866 7.13672 1.66516C7.13672 1.66516 51.6448 -0.00410748 63.6828 1.94614Z" fill="#D9D9D9" stroke="#020202" stroke-miterlimit="10" stroke-linecap="round" stroke-linejoin="round"/>
<path d="M63.6828 1.94614C64.9524 2.15183 65.9732 3.01701 66.4014 4.22986C66.9301 5.72729 67.2219 8.41783 67.664 11.8075C67.664 11.8075 64.1316 14.2951 57.5576 8.03885L9.77895 8.93414C9.01155 8.94052 8.26044 8.67316 7.90485 7.99309C7.41349 7.05336 7.20089 4.78866 7.13672 1.66516C7.13672 1.66516 51.6448 -0.00410748 63.6828 1.94614Z" fill="#D9D9D9" stroke="#020202" stroke-miterlimit="10" stroke-linecap="round" stroke-linejoin="round"/>
<path d="M18.0831 22.5608C16.2866 22.5608 14.8303 21.1045 14.8303 19.308C14.8303 17.5115 16.2866 16.0552 18.0831 16.0552C19.8796 16.0552 21.3359 17.5115 21.3359 19.308C21.3359 21.1045 19.8796 22.5608 18.0831 22.5608Z" fill="#D0CFCE"/>
<path d="M53.3214 22.5608C51.5249 22.5608 50.0686 21.1045 50.0686 19.308C50.0686 17.5115 51.5249 16.0552 53.3214 16.0552C55.1179 16.0552 56.5742 17.5115 56.5742 19.308C56.5742 21.1045 55.1179 22.5608 53.3214 22.5608Z" fill="#D0CFCE"/>
<path d="M57.8125 1.31787C57.8124 4.49655 57.8124 8.31096 58.1305 8.62883" stroke="#020202" stroke-miterlimit="10" stroke-linecap="round" stroke-linejoin="round"/>
<path d="M18.0831 22.5608C16.2866 22.5608 14.8303 21.1045 14.8303 19.308C14.8303 17.5115 16.2866 16.0552 18.0831 16.0552C19.8796 16.0552 21.3359 17.5115 21.3359 19.308C21.3359 21.1045 19.8796 22.5608 18.0831 22.5608Z" fill="white" stroke="#020202" stroke-miterlimit="10" stroke-linecap="round" stroke-linejoin="round"/>
<path d="M53.3214 22.5608C51.5249 22.5608 50.0686 21.1045 50.0686 19.308C50.0686 17.5115 51.5249 16.0552 53.3214 16.0552C55.1179 16.0552 56.5742 17.5115 56.5742 19.308C56.5742 21.1045 55.1179 22.5608 53.3214 22.5608Z" fill="white" stroke="#020202" stroke-miterlimit="10" stroke-linecap="round" stroke-linejoin="round"/>
<defs>
<filter id="filter0_f_69_5824" x="0" y="14.0723" width="74.938" height="15.8145" filterUnits="userSpaceOnUse" color-interpolation-filters="sRGB">
<feFlood flood-opacity="0" result="BackgroundImageFix"/>
<feBlend mode="normal" in="SourceGraphic" in2="BackgroundImageFix" result="shape"/>
<feGaussianBlur stdDeviation="3" result="effect1_foregroundBlur_69_5824"/>
</filter>
<linearGradient id="paint0_linear_69_5824" x1="6.00001" y1="10.7465" x2="68.2914" y2="10.7465" gradientUnits="userSpaceOnUse">
<stop stop-color="#FF7C74"/>
<stop offset="1" stop-color="#CA3027"/>
</linearGradient>
</defs>
</svg>
