<svg width="154" height="20" viewBox="0 0 154 20" fill="none" xmlns="http://www.w3.org/2000/svg">
<path d="M149.921 14.4367L147.911 16.706L146.182 6.33227C146.125 5.91444 146.053 5.62629 145.966 5.4678C145.88 5.30931 145.757 5.23007 145.599 5.23007C145.44 5.23007 145.275 5.34533 145.102 5.57586C144.943 5.79198 144.734 6.26023 144.475 6.98063L144.129 7.93155H143.718L144.259 6.35388C144.561 5.475 144.936 4.89148 145.383 4.60332C145.844 4.30076 146.341 4.14948 146.874 4.14948C147.407 4.14948 147.832 4.30796 148.149 4.62494C148.48 4.9275 148.704 5.51102 148.819 6.3755L149.921 14.4367ZM144.907 18.6078C145.556 18.2908 146.233 17.8442 146.939 17.2679C147.659 16.706 148.401 15.9423 149.165 14.977C149.972 13.9396 150.692 12.8158 151.326 11.6056C151.974 10.3809 152.442 9.18504 152.731 8.018C152.414 7.8451 152.104 7.63619 151.801 7.39125C151.513 7.13191 151.275 6.84375 151.088 6.52678C150.915 6.1954 150.829 5.8424 150.829 5.4678C150.858 5.04997 150.987 4.72579 151.218 4.49527C151.463 4.26474 151.78 4.14948 152.169 4.14948C152.63 4.14948 152.968 4.31517 153.184 4.64655C153.401 4.96352 153.509 5.42458 153.509 6.02971C153.509 6.73569 153.386 7.49931 153.141 8.32056C152.911 9.14182 152.594 9.98468 152.19 10.8492C151.787 11.6992 151.326 12.5277 150.807 13.3345C150.303 14.127 149.784 14.8618 149.251 15.5389C148.862 16 148.415 16.4682 147.911 16.9437C147.421 17.4192 146.874 17.8586 146.269 18.262C145.678 18.6799 145.044 19.0184 144.367 19.2778C144.021 19.4219 143.711 19.5227 143.438 19.5803C143.164 19.638 142.933 19.6668 142.746 19.6668C142.343 19.6668 142.011 19.5659 141.752 19.3642C141.492 19.1769 141.363 18.9104 141.363 18.5646C141.363 18.2044 141.5 17.909 141.773 17.6785C142.033 17.4624 142.364 17.3543 142.768 17.3543C143.171 17.3543 143.546 17.4696 143.891 17.7001C144.252 17.9306 144.59 18.2332 144.907 18.6078Z" fill="#BE2738"/>
<path d="M136.758 15.6038H134.1L136.694 6.28905C136.823 5.85681 136.866 5.55425 136.823 5.38135C136.78 5.20846 136.65 5.12201 136.434 5.12201C136.16 5.12201 135.908 5.25888 135.678 5.53263C135.447 5.80638 135.21 6.28905 134.965 6.98063L134.597 7.99639H134.187L134.748 6.3755C134.95 5.79918 135.202 5.35254 135.505 5.03556C135.807 4.70418 136.139 4.47365 136.499 4.34398C136.859 4.21431 137.227 4.14948 137.601 4.14948C138.062 4.14948 138.401 4.24313 138.617 4.43043C138.848 4.61773 138.992 4.86267 139.049 5.16523C139.121 5.4678 139.136 5.79918 139.092 6.15938C139.064 6.50517 139.006 6.84375 138.92 7.17514L136.758 15.6038ZM142.291 4.64655C141.974 4.64655 141.65 4.76181 141.318 4.99234C140.987 5.20846 140.641 5.56145 140.281 6.05132C139.921 6.54119 139.553 7.18954 139.179 7.99639C138.819 8.78882 138.444 9.76135 138.055 10.914C137.666 12.0522 137.277 13.3994 136.888 14.9554L137.407 12.081C137.853 10.5682 138.271 9.30751 138.66 8.29895C139.064 7.27599 139.453 6.46195 139.827 5.85681C140.216 5.23727 140.627 4.79783 141.059 4.53849C141.491 4.27915 141.96 4.14948 142.464 4.14948C142.983 4.14948 143.379 4.30076 143.653 4.60332C143.941 4.90589 144.085 5.2805 144.085 5.72714C144.085 6.08734 143.998 6.42592 143.825 6.7429C143.653 7.04546 143.422 7.2904 143.134 7.4777C142.86 7.6506 142.543 7.73704 142.183 7.73704C141.823 7.73704 141.535 7.64339 141.318 7.45609C141.117 7.26879 141.016 6.99504 141.016 6.63484C141.016 6.31787 141.088 6.02971 141.232 5.77037C141.376 5.51102 141.563 5.2949 141.794 5.12201C142.024 4.93471 142.277 4.80503 142.55 4.733C142.522 4.70418 142.486 4.68257 142.442 4.66816C142.399 4.65375 142.349 4.64655 142.291 4.64655Z" fill="#BE2738"/>
<path d="M129.476 8.06122C128.929 9.60287 128.417 10.878 127.942 11.8865C127.466 12.8951 126.991 13.6947 126.515 14.2854C126.054 14.8762 125.579 15.294 125.089 15.5389C124.599 15.7839 124.08 15.9063 123.533 15.9063C122.928 15.9063 122.467 15.7695 122.15 15.4957C121.847 15.222 121.682 14.8473 121.653 14.3719C121.624 13.882 121.718 13.3057 121.934 12.6429L124.03 6.28905C124.174 5.85681 124.21 5.55425 124.138 5.38135C124.066 5.20846 123.922 5.12201 123.706 5.12201C123.49 5.12201 123.259 5.24448 123.014 5.48941C122.784 5.73434 122.532 6.23142 122.258 6.98063L121.912 7.95316H121.501L122.042 6.3755C122.258 5.77036 122.517 5.30931 122.82 4.99234C123.137 4.67536 123.468 4.45925 123.814 4.34398C124.174 4.21431 124.52 4.14948 124.851 4.14948C125.485 4.14948 125.939 4.29355 126.213 4.58171C126.501 4.85546 126.645 5.24448 126.645 5.74875C126.659 6.23862 126.551 6.80773 126.321 7.45609L124.354 13.3994C124.008 14.4367 124.109 14.9554 124.657 14.9554C124.959 14.9554 125.291 14.7897 125.651 14.4583C126.011 14.1125 126.379 13.6299 126.753 13.0103C127.142 12.3764 127.524 11.6416 127.899 10.8059C128.288 9.97027 128.655 9.06257 129.001 8.08284C129.361 7.1031 129.685 6.07293 129.973 4.99234L129.476 8.06122ZM130.146 13.7668C130.045 14.127 130.002 14.4151 130.017 14.6312C130.031 14.8329 130.161 14.9338 130.406 14.9338C130.679 14.9338 130.931 14.7969 131.162 14.5232C131.407 14.235 131.652 13.7523 131.897 13.0752L132.264 12.0594H132.675L132.113 13.6803C131.911 14.2566 131.652 14.7105 131.335 15.0419C131.032 15.3588 130.701 15.5822 130.341 15.7118C129.995 15.8415 129.649 15.9063 129.303 15.9063C128.958 15.9063 128.662 15.8415 128.417 15.7118C128.172 15.5966 127.992 15.4309 127.877 15.2148C127.733 14.9554 127.668 14.6384 127.682 14.2638C127.711 13.8892 127.798 13.4282 127.942 12.8807L130.103 4.45204C130.622 4.43763 131.112 4.40882 131.573 4.36559C132.034 4.32237 132.459 4.25033 132.848 4.14948L130.146 13.7668Z" fill="#BE2738"/>
<path d="M116.623 13.8316C116.68 14.2062 116.767 14.4655 116.882 14.6096C117.012 14.7537 117.17 14.8257 117.357 14.8257C117.559 14.8257 117.768 14.7105 117.984 14.4799C118.2 14.235 118.445 13.7163 118.719 12.9239L119 12.1243H119.411L118.87 13.7019C118.669 14.3071 118.409 14.7681 118.092 15.0851C117.79 15.4021 117.465 15.6182 117.12 15.7334C116.788 15.8487 116.45 15.9063 116.104 15.9063C115.542 15.9063 115.059 15.7623 114.656 15.4741C114.253 15.1715 114.008 14.624 113.921 13.8316L113.057 6.22421C112.999 5.84961 112.905 5.60467 112.776 5.48941C112.646 5.35974 112.488 5.2949 112.3 5.2949C112.171 5.2949 112.034 5.33813 111.89 5.42457C111.746 5.51102 111.601 5.69112 111.457 5.96487C111.313 6.22421 111.148 6.61323 110.96 7.13191L110.679 7.93155H110.269L110.809 6.35388C111.011 5.74875 111.263 5.2877 111.565 4.97073C111.868 4.65375 112.192 4.43763 112.538 4.32237C112.898 4.20711 113.251 4.14948 113.597 4.14948C114.216 4.14948 114.706 4.30076 115.067 4.60332C115.441 4.90589 115.679 5.48941 115.78 6.35388L116.623 13.8316ZM117.919 5.59747C117.53 6.00089 117.192 6.46194 116.904 6.98063C116.615 7.49931 116.363 8.018 116.147 8.53668C115.945 9.05537 115.773 9.53083 115.628 9.96307C115.628 9.96307 115.556 9.96307 115.412 9.96307C115.268 9.94866 115.196 9.94145 115.196 9.94145C115.268 9.72534 115.362 9.44438 115.477 9.09859C115.592 8.7528 115.737 8.3782 115.909 7.97478C116.097 7.57135 116.32 7.15352 116.579 6.72129C116.839 6.27464 117.127 5.85681 117.444 5.4678C117.847 4.96352 118.236 4.61773 118.611 4.43043C118.985 4.24313 119.36 4.14948 119.735 4.14948C120.138 4.14948 120.47 4.25753 120.729 4.47365C120.988 4.68977 121.118 4.98513 121.118 5.35974C121.118 5.74875 120.981 6.08013 120.707 6.35388C120.448 6.62764 120.095 6.76451 119.648 6.76451C119.288 6.76451 118.949 6.67086 118.633 6.48356C118.316 6.28185 118.078 5.98648 117.919 5.59747ZM111.371 14.4583C111.962 13.8388 112.466 13.1256 112.884 12.3188C113.316 11.4975 113.647 10.7555 113.878 10.0927C113.878 10.0927 113.943 10.1071 114.072 10.136C114.202 10.1504 114.267 10.1576 114.267 10.1576C114.137 10.5466 113.964 10.9932 113.748 11.4975C113.547 11.9874 113.294 12.4989 112.992 13.032C112.689 13.565 112.315 14.0765 111.868 14.5664C111.45 15.0419 111.047 15.3876 110.658 15.6038C110.283 15.8055 109.916 15.9063 109.556 15.9063C109.123 15.9063 108.785 15.8055 108.54 15.6038C108.295 15.3876 108.172 15.0995 108.172 14.7393C108.172 14.3215 108.316 13.9757 108.605 13.7019C108.893 13.4282 109.239 13.2913 109.642 13.2913C110.074 13.2913 110.427 13.4066 110.701 13.6371C110.975 13.8532 111.198 14.127 111.371 14.4583Z" fill="#BE2738"/>
<path d="M104.868 8.06122C104.32 9.60287 103.809 10.878 103.333 11.8865C102.858 12.8951 102.382 13.6947 101.907 14.2854C101.446 14.8762 100.971 15.294 100.481 15.5389C99.9908 15.7839 99.4721 15.9063 98.9246 15.9063C98.3194 15.9063 97.8584 15.7695 97.5414 15.4957C97.2389 15.222 97.0732 14.8473 97.0443 14.3719C97.0155 13.882 97.1092 13.3057 97.3253 12.6429L99.4217 6.28905C99.5657 5.85681 99.6018 5.55425 99.5297 5.38135C99.4577 5.20846 99.3136 5.12201 99.0975 5.12201C98.8814 5.12201 98.6508 5.24448 98.4059 5.48941C98.1754 5.73434 97.9232 6.23142 97.6495 6.98063L97.3037 7.95316H96.8931L97.4334 6.3755C97.6495 5.77036 97.9088 5.30931 98.2114 4.99234C98.5284 4.67536 98.8597 4.45925 99.2055 4.34398C99.5657 4.21431 99.9115 4.14948 100.243 4.14948C100.877 4.14948 101.331 4.29355 101.604 4.58171C101.893 4.85546 102.037 5.24448 102.037 5.74875C102.051 6.23862 101.943 6.80773 101.713 7.45609L99.7458 13.3994C99.4 14.4367 99.5009 14.9554 100.048 14.9554C100.351 14.9554 100.682 14.7897 101.043 14.4583C101.403 14.1125 101.77 13.6299 102.145 13.0103C102.534 12.3764 102.916 11.6416 103.29 10.8059C103.679 9.97027 104.047 9.06257 104.392 8.08284C104.753 7.1031 105.077 6.07293 105.365 4.99234L104.868 8.06122ZM105.538 13.7668C105.437 14.127 105.394 14.4151 105.408 14.6312C105.423 14.8329 105.552 14.9338 105.797 14.9338C106.071 14.9338 106.323 14.7969 106.554 14.5232C106.799 14.235 107.043 13.7523 107.288 13.0752L107.656 12.0594H108.066L107.504 13.6803C107.303 14.2566 107.043 14.7105 106.726 15.0419C106.424 15.3588 106.093 15.5822 105.732 15.7118C105.387 15.8415 105.041 15.9063 104.695 15.9063C104.349 15.9063 104.054 15.8415 103.809 15.7118C103.564 15.5966 103.384 15.4309 103.269 15.2148C103.124 14.9554 103.06 14.6384 103.074 14.2638C103.103 13.8892 103.189 13.4282 103.333 12.8807L105.495 4.45204C106.013 4.43763 106.503 4.40882 106.964 4.36559C107.425 4.32237 107.85 4.25033 108.239 4.14948L105.538 13.7668Z" fill="#BE2738"/>
<path d="M95.3656 11.0648C95.2792 11.2954 95.1927 11.5619 95.1063 11.8645C95.0199 12.167 94.9262 12.4912 94.8253 12.837C94.7533 13.1108 94.6597 13.507 94.5444 14.0257C94.4291 14.5299 94.3355 15.0558 94.2634 15.6033C93.5286 15.5745 92.7002 15.5601 91.7781 15.5601C90.8704 15.5457 90.0563 15.5385 89.3359 15.5385C88.9901 15.5385 88.5435 15.5385 87.996 15.5385C87.4629 15.5385 86.8794 15.5457 86.2454 15.5601C85.6259 15.5601 84.9919 15.5673 84.3436 15.5817C83.7096 15.5817 83.1117 15.5889 82.5498 15.6033L82.6363 15.1711C83.1261 15.1423 83.5079 15.0846 83.7817 14.9982C84.0554 14.9117 84.2715 14.7389 84.43 14.4795C84.5885 14.2202 84.7326 13.8312 84.8623 13.3125L87.7367 2.59298C87.8807 2.05989 87.9384 1.67087 87.9095 1.42594C87.8951 1.1666 87.7727 0.993703 87.5421 0.907256C87.326 0.8064 86.973 0.748769 86.4832 0.734361L86.5912 0.302124C86.937 0.316532 87.4053 0.330939 87.996 0.345347C88.5867 0.359755 89.2135 0.366959 89.8762 0.366959C90.467 0.366959 91.0361 0.359755 91.5836 0.345347C92.1455 0.330939 92.6281 0.316532 93.0316 0.302124L92.9235 0.734361C92.4336 0.748769 92.0518 0.8064 91.7781 0.907256C91.5043 0.993703 91.2882 1.1666 91.1297 1.42594C90.9856 1.67087 90.8416 2.05989 90.6975 2.59298L87.8231 13.3125C87.679 13.8312 87.6142 14.2202 87.6286 14.4795C87.6574 14.7389 87.7871 14.9117 88.0176 14.9982C88.2481 15.0702 88.6011 15.1063 89.0766 15.1063H90.1788C90.928 15.1063 91.5764 14.9766 92.1239 14.7172C92.6858 14.4579 93.1901 14.0329 93.6367 13.4421C94.0833 12.8514 94.494 12.059 94.8686 11.0648H95.3656Z" fill="#BE2738"/>
<path d="M71.2051 15.6038H68.5469L71.1403 6.28905C71.27 5.85681 71.3132 5.55425 71.27 5.38135C71.2267 5.20846 71.0971 5.12201 70.881 5.12201C70.6072 5.12201 70.3551 5.25888 70.1245 5.53263C69.894 5.80638 69.6563 6.28905 69.4113 6.98063L69.0439 7.99639H68.6333L69.1952 6.3755C69.3969 5.79918 69.6491 5.35254 69.9516 5.03556C70.2542 4.70418 70.5856 4.47365 70.9458 4.34398C71.306 4.21431 71.6734 4.14948 72.048 4.14948C72.5091 4.14948 72.8476 4.24313 73.0638 4.43043C73.2943 4.61773 73.4384 4.86267 73.496 5.16523C73.568 5.4678 73.5824 5.79918 73.5392 6.15938C73.5104 6.50517 73.4528 6.84375 73.3663 7.17514L71.2051 15.6038ZM76.7378 4.64655C76.4208 4.64655 76.0966 4.76181 75.7652 4.99234C75.4339 5.20846 75.0881 5.56145 74.7279 6.05132C74.3677 6.54119 74.0003 7.18954 73.6257 7.99639C73.2655 8.78882 72.8909 9.76135 72.5018 10.914C72.1128 12.0522 71.7238 13.3994 71.3348 14.9554L71.8535 12.081C72.3001 10.5682 72.718 9.30751 73.107 8.29895C73.5104 7.27599 73.8994 6.46195 74.274 5.85681C74.663 5.23727 75.0737 4.79783 75.5059 4.53849C75.9381 4.27915 76.4064 4.14948 76.9107 4.14948C77.4294 4.14948 77.8256 4.30076 78.0993 4.60332C78.3875 4.90589 78.5316 5.2805 78.5316 5.72714C78.5316 6.08734 78.4451 6.42592 78.2722 6.7429C78.0993 7.04546 77.8688 7.2904 77.5806 7.4777C77.3069 7.6506 76.9899 7.73704 76.6297 7.73704C76.2695 7.73704 75.9814 7.64339 75.7652 7.45609C75.5635 7.26879 75.4627 6.99504 75.4627 6.63484C75.4627 6.31787 75.5347 6.02971 75.6788 5.77037C75.8229 5.51102 76.0102 5.2949 76.2407 5.12201C76.4712 4.93471 76.7234 4.80503 76.9971 4.733C76.9683 4.70418 76.9323 4.68257 76.8891 4.66816C76.8458 4.65375 76.7954 4.64655 76.7378 4.64655Z" fill="#BE2738"/>
<path d="M60.7004 10.8492C61.3776 10.5898 61.9971 10.3233 62.559 10.0495C63.1354 9.76136 63.618 9.45879 64.007 9.14182C64.5401 8.66636 64.9724 8.11165 65.3037 7.4777C65.6351 6.82935 65.8008 6.12336 65.8008 5.35974C65.8008 5.02836 65.772 4.81224 65.7144 4.71138C65.6567 4.61053 65.5703 4.5601 65.455 4.5601C65.1237 4.5601 64.7635 4.71859 64.3744 5.03556C63.9854 5.35254 63.6036 5.79198 63.229 6.35388C62.8544 6.90139 62.5086 7.52093 62.1916 8.21251C61.8891 8.90409 61.6441 9.63169 61.4568 10.3953C61.2695 11.1589 61.1759 11.9153 61.1759 12.6645C61.1759 13.4282 61.32 13.9685 61.6081 14.2854C61.9107 14.588 62.3069 14.7393 62.7968 14.7393C63.2146 14.7393 63.7117 14.6024 64.288 14.3287C64.8643 14.0549 65.4334 13.5578 65.9953 12.8374L66.3411 13.0103C66.053 13.4858 65.6712 13.9469 65.1957 14.3935C64.7202 14.8401 64.1727 15.2075 63.5532 15.4957C62.9481 15.7695 62.2781 15.9063 61.5433 15.9063C60.9382 15.9063 60.3907 15.7911 59.9008 15.5605C59.4109 15.33 59.0291 14.9914 58.7554 14.5448C58.4816 14.0837 58.3447 13.5218 58.3447 12.8591C58.3447 12.1531 58.4672 11.4039 58.7121 10.6114C58.9571 9.80458 59.3029 9.01935 59.7495 8.25573C60.2106 7.49211 60.7508 6.80053 61.3704 6.18099C62.0043 5.56145 62.7031 5.07158 63.4667 4.71138C64.2304 4.33678 65.0516 4.14948 65.9305 4.14948C66.5068 4.14948 66.9895 4.28635 67.3785 4.5601C67.7675 4.81944 67.962 5.22286 67.962 5.77037C67.962 6.33227 67.8035 6.85816 67.4865 7.34803C67.1696 7.8379 66.7373 8.28454 66.1898 8.68797C65.6567 9.09139 65.066 9.45159 64.4177 9.76856C63.7837 10.0855 63.1426 10.3593 62.4942 10.5898C61.8459 10.8203 61.2407 11.0076 60.6788 11.1517L60.7004 10.8492Z" fill="#BE2738"/>
<path d="M53.9521 5.14306C53.6351 5.14306 53.2821 5.35197 52.8931 5.7698C52.5185 6.18763 52.1367 6.76395 51.7477 7.49875C51.3586 8.21915 50.9912 9.03319 50.6455 9.94089C50.3141 10.8486 50.0259 11.7995 49.781 12.7937L50.1916 10.546C50.6959 9.01879 51.2002 7.78691 51.7044 6.85039C52.2087 5.91388 52.7274 5.22951 53.2605 4.79727C53.7936 4.36503 54.3627 4.14891 54.9678 4.14891C55.7747 4.14891 56.3942 4.42266 56.8265 4.97016C57.2731 5.51766 57.4964 6.32451 57.4964 7.39069C57.4964 8.05346 57.4028 8.76665 57.2155 9.53027C57.0282 10.2939 56.7544 11.0503 56.3942 11.7995C56.0484 12.5487 55.6162 13.2403 55.0975 13.8743C54.5788 14.4938 53.9809 14.9909 53.3037 15.3655C52.641 15.7257 51.8989 15.9058 51.0777 15.9058C50.6166 15.9058 50.206 15.8049 49.8458 15.6032C49.4856 15.4015 49.2191 15.1205 49.0462 14.7603L49.2191 14.3929C49.392 14.7243 49.5793 14.962 49.781 15.1061C49.9827 15.2502 50.2204 15.3222 50.4942 15.3222C50.9408 15.3222 51.3731 15.1494 51.7909 14.8036C52.2231 14.4434 52.6121 13.9679 52.9579 13.3772C53.3181 12.772 53.6351 12.1021 53.9088 11.3673C54.1826 10.6325 54.3915 9.88326 54.5356 9.11964C54.6941 8.35602 54.7733 7.64283 54.7733 6.98007C54.7733 6.28849 54.7013 5.81303 54.5572 5.55368C54.4131 5.27993 54.2114 5.14306 53.9521 5.14306ZM50.4293 1.31776C50.9336 1.27453 51.4163 1.2169 51.8773 1.14486C52.3528 1.05842 52.7994 0.943152 53.2173 0.799072L48.5275 17.3322C48.3258 18.0237 48.3834 18.4848 48.7004 18.7153C49.0174 18.9458 49.5288 19.0611 50.2348 19.0611L50.1052 19.5149C49.7738 19.5005 49.3127 19.4789 48.722 19.4501C48.1313 19.4357 47.5117 19.4285 46.8634 19.4285C46.3303 19.4285 45.79 19.4357 45.2425 19.4501C44.695 19.4789 44.2916 19.5005 44.0322 19.5149L44.1619 19.0611C44.6806 19.0611 45.0552 18.9602 45.2857 18.7585C45.5162 18.5712 45.7035 18.2254 45.8476 17.7212L50.4293 1.31776ZM46.1286 7.97421C46.6761 7.42671 47.1804 6.87921 47.6414 6.33171C48.1169 5.7698 48.5779 5.11424 49.0246 4.36503C49.4712 3.60141 49.9179 2.64329 50.3645 1.49065L50.4293 1.83644C50.1268 2.83059 49.7666 3.70947 49.3487 4.47309C48.9309 5.2223 48.4699 5.89947 47.9656 6.50461C47.4757 7.10974 46.9426 7.69326 46.3663 8.25517L46.1286 7.97421Z" fill="#BE2738"/>
<path d="M41.6784 8.06122C41.1309 9.60287 40.6194 10.878 40.1439 11.8865C39.6685 12.8951 39.193 13.6947 38.7176 14.2854C38.2565 14.8762 37.7811 15.294 37.2912 15.5389C36.8013 15.7839 36.2826 15.9063 35.7351 15.9063C35.13 15.9063 34.6689 15.7695 34.352 15.4957C34.0494 15.222 33.8837 14.8473 33.8549 14.3719C33.8261 13.882 33.9197 13.3057 34.1359 12.6429L36.2322 6.28905C36.3763 5.85681 36.4123 5.55425 36.3403 5.38135C36.2682 5.20846 36.1241 5.12201 35.908 5.12201C35.6919 5.12201 35.4614 5.24448 35.2164 5.48941C34.9859 5.73434 34.7338 6.23142 34.46 6.98063L34.1142 7.95316H33.7036L34.2439 6.3755C34.46 5.77036 34.7194 5.30931 35.0219 4.99234C35.3389 4.67536 35.6703 4.45925 36.0161 4.34398C36.3763 4.21431 36.7221 4.14948 37.0535 4.14948C37.6874 4.14948 38.1413 4.29355 38.415 4.58171C38.7032 4.85546 38.8472 5.24448 38.8472 5.74875C38.8616 6.23862 38.7536 6.80773 38.5231 7.45609L36.5564 13.3994C36.2106 14.4367 36.3114 14.9554 36.8589 14.9554C37.1615 14.9554 37.4929 14.7897 37.8531 14.4583C38.2133 14.1125 38.5807 13.6299 38.9553 13.0103C39.3443 12.3764 39.7261 11.6416 40.1007 10.8059C40.4897 9.97027 40.8571 9.06257 41.2029 8.08284C41.5631 7.1031 41.8873 6.07293 42.1755 4.99234L41.6784 8.06122ZM42.3484 13.7668C42.2475 14.127 42.2043 14.4151 42.2187 14.6312C42.2331 14.8329 42.3628 14.9338 42.6077 14.9338C42.8815 14.9338 43.1336 14.7969 43.3641 14.5232C43.6091 14.235 43.854 13.7523 44.0989 13.0752L44.4663 12.0594H44.8769L44.315 13.6803C44.1133 14.2566 43.854 14.7105 43.537 15.0419C43.2344 15.3588 42.9031 15.5822 42.5429 15.7118C42.1971 15.8415 41.8513 15.9063 41.5055 15.9063C41.1597 15.9063 40.8643 15.8415 40.6194 15.7118C40.3745 15.5966 40.1944 15.4309 40.0791 15.2148C39.935 14.9554 39.8702 14.6384 39.8846 14.2638C39.9134 13.8892 39.9999 13.4282 40.1439 12.8807L42.3051 4.45204C42.8238 4.43763 43.3137 4.40882 43.7747 4.36559C44.2358 4.32237 44.6608 4.25033 45.0498 4.14948L42.3484 13.7668Z" fill="#BE2738"/>
<path d="M33.7649 0.151283C33.6208 0.525889 33.4263 1.07339 33.1814 1.79378C32.9508 2.49977 32.7203 3.42188 32.4898 4.5601H32.0576C32.1008 4.35839 32.1296 4.14948 32.144 3.93336C32.1728 3.71724 32.1872 3.52273 32.1872 3.34984C32.1872 2.78793 32.072 2.29806 31.8414 1.88023C31.6253 1.448 31.2867 1.10941 30.8257 0.864475C30.379 0.605132 29.8027 0.475461 29.0967 0.475461C28.3331 0.475461 27.6848 0.677172 27.1517 1.08059C26.6186 1.46961 26.352 2.09635 26.352 2.96083C26.352 3.49392 26.4745 3.99819 26.7194 4.47366C26.9788 4.93471 27.3029 5.38856 27.692 5.8352C28.0954 6.26744 28.5204 6.70688 28.9671 7.15353C29.4137 7.58576 29.8315 8.03241 30.2205 8.49346C30.6096 8.95452 30.9265 9.44438 31.1715 9.96307C31.4308 10.4673 31.5605 11.0221 31.5605 11.6272C31.5605 12.3908 31.3732 13.0464 30.9986 13.5939C30.6384 14.127 30.1701 14.5664 29.5938 14.9122C29.0175 15.2436 28.3907 15.4885 27.7136 15.647C27.0508 15.8199 26.4024 15.9063 25.7685 15.9063C25.1201 15.9063 24.5798 15.8559 24.1476 15.755C23.7298 15.6686 23.3768 15.5461 23.0886 15.3876C22.8005 15.2292 22.5195 15.0707 22.2458 14.9122C22.1017 14.7969 21.9576 14.7177 21.8135 14.6745C21.6839 14.6168 21.5758 14.588 21.4893 14.588C21.302 14.588 21.1436 14.6817 21.0139 14.869C20.8986 15.0419 20.7545 15.3372 20.5817 15.755H20.1494C20.2791 15.4381 20.416 15.0707 20.56 14.6528C20.7041 14.235 20.8626 13.7019 21.0355 13.0536C21.2084 12.3908 21.4029 11.5623 21.619 10.5682H22.0513C21.9936 10.842 21.9432 11.1301 21.9 11.4327C21.8568 11.7208 21.8423 12.009 21.8568 12.2972C21.9 13.3057 22.2097 14.0837 22.7861 14.6312C23.3768 15.1787 24.2413 15.4525 25.3795 15.4525C26.3448 15.4525 27.0724 15.2508 27.5623 14.8474C28.0522 14.4295 28.2971 13.8244 28.2971 13.032C28.2971 12.4268 28.1818 11.8793 27.9513 11.3895C27.7352 10.8852 27.447 10.4169 27.0868 9.98468C26.7266 9.55244 26.3448 9.12741 25.9414 8.70958C25.538 8.29175 25.1562 7.86672 24.796 7.43448C24.4358 6.98784 24.1404 6.51238 23.9099 6.0081C23.6794 5.48941 23.5641 4.9131 23.5641 4.27915C23.5641 3.55875 23.7154 2.93201 24.0179 2.39892C24.3349 1.86583 24.7383 1.42638 25.2282 1.08059C25.7325 0.720396 26.2872 0.453849 26.8923 0.280954C27.4974 0.0936511 28.0954 0 28.6861 0C29.4641 0 30.1053 0.0936511 30.6096 0.280954C31.1138 0.468257 31.5461 0.69158 31.9063 0.950923C32.0648 1.05178 32.2016 1.13823 32.3169 1.21027C32.4466 1.2679 32.5474 1.29671 32.6195 1.29671C32.8212 1.29671 33.0589 0.914902 33.3327 0.151283H33.7649Z" fill="#BE2738"/>
<path fill-rule="evenodd" clip-rule="evenodd" d="M0.5 19.2885L14.8731 1.16309L15.7701 1.87437L1.39697 19.9998L0.5 19.2885Z" fill="#BE2738"/>
<path fill-rule="evenodd" clip-rule="evenodd" d="M0.5 19.2886L7.68657 10.2259L8.58354 10.9372L1.39697 19.9999L0.5 19.2886Z" fill="#828487"/>
<path fill-rule="evenodd" clip-rule="evenodd" d="M4.06543 18.4568L15.1951 4.71967L16.0845 5.4403L4.9549 19.1775L4.06543 18.4568Z" fill="#BE2738"/>
<path fill-rule="evenodd" clip-rule="evenodd" d="M9.62988 11.5882L15.1947 4.71967L16.0842 5.4403L10.5194 12.3089L9.62988 11.5882Z" fill="#828487"/>
<path fill-rule="evenodd" clip-rule="evenodd" d="M7.36719 18.463L15.1897 8.54175L16.0887 9.25053L8.26613 19.1718L7.36719 18.463Z" fill="#BE2738"/>
<path fill-rule="evenodd" clip-rule="evenodd" d="M7.36719 18.4631L11.2785 13.5025L12.1774 14.2113L8.26613 19.1719L7.36719 18.4631Z" fill="#828487"/>
<path fill-rule="evenodd" clip-rule="evenodd" d="M10.6074 18.1498L15.1229 12.2988L16.0291 12.9982L11.5137 18.8492L10.6074 18.1498Z" fill="#BE2738"/>
<path fill-rule="evenodd" clip-rule="evenodd" d="M12.8652 15.2243L15.123 12.2988L16.0292 12.9982L13.7715 15.9237L12.8652 15.2243Z" fill="#828487"/>
</svg>
