<svg width="20" height="20" viewBox="0 0 20 20" fill="none" xmlns="http://www.w3.org/2000/svg">
<path d="M14.0979 16.1684C15.1443 16.1684 15.9926 15.3201 15.9926 14.2736C15.9926 13.2272 15.1443 12.3789 14.0979 12.3789C13.0514 12.3789 12.2031 13.2272 12.2031 14.2736C12.2031 15.3201 13.0514 16.1684 14.0979 16.1684Z" stroke="#4D4D4D" stroke-width="1.5" stroke-linecap="round" stroke-linejoin="round"/>
<path d="M5.25411 16.1684C6.30055 16.1684 7.14885 15.3201 7.14885 14.2736C7.14885 13.2272 6.30055 12.3789 5.25411 12.3789C4.20768 12.3789 3.35938 13.2272 3.35938 14.2736C3.35938 15.3201 4.20768 16.1684 5.25411 16.1684Z" stroke="#4D4D4D" stroke-width="1.5" stroke-linecap="round" stroke-linejoin="round"/>
<path d="M12.203 14.2734H7.15039" stroke="#4D4D4D" stroke-width="1.5" stroke-linecap="round" stroke-linejoin="round"/>
<path d="M15.9919 14.2732H17.8866C18.0541 14.2732 18.2148 14.2067 18.3332 14.0882C18.4517 13.9698 18.5182 13.8092 18.5182 13.6417V8.58902L14.9182 4.39455C14.8589 4.3236 14.7848 4.26654 14.701 4.22739C14.6172 4.18824 14.5259 4.16795 14.4335 4.16797H1.46556C1.29806 4.16797 1.13741 4.23451 1.01897 4.35295C0.900526 4.4714 0.833984 4.63204 0.833984 4.79955V13.6417C0.833984 13.8092 0.900526 13.9698 1.01897 14.0882C1.13741 14.2067 1.29806 14.2732 1.46556 14.2732H3.3603" stroke="#4D4D4D" stroke-width="1.5" stroke-linecap="round" stroke-linejoin="round"/>
<path d="M0.833984 8.58984H18.5182" stroke="#4D4D4D" stroke-width="1.5" stroke-linecap="round" stroke-linejoin="round"/>
<path d="M12.2031 4.16797V8.58902" stroke="#4D4D4D" stroke-width="1.5" stroke-linecap="round" stroke-linejoin="round"/>
<path d="M6.51758 4.16797V8.58902" stroke="#4D4D4D" stroke-width="1.5" stroke-linecap="round" stroke-linejoin="round"/>
</svg>
