<svg width="18" height="16" viewBox="0 0 18 16" fill="none" xmlns="http://www.w3.org/2000/svg">
<path d="M14.7227 12.7627L3.27522 12.7627M14.7227 12.7627L14.7227 3.26269C14.7227 1.73663 13.4856 0.499512 11.9595 0.499512L6.0384 0.499511C4.51234 0.499511 3.27522 1.73663 3.27522 3.26269L3.27522 12.7627M14.7227 12.7627L14.7227 7.7907C14.7227 7.07807 14.9467 6.50037 15.499 6.50037L16.2324 6.50037C16.9319 6.50037 17.499 7.23212 17.499 8.13477L17.499 14.167C17.499 14.3485 17.4394 14.5216 17.3313 14.6793C17.1127 15.1699 16.7025 15.5004 16.2324 15.5004L15.499 15.5004C15.4784 15.5004 15.458 15.4996 15.4377 15.498C15.394 15.4996 15.3499 15.5004 15.3055 15.5004L2.69257 15.5004C2.58998 15.5004 2.48904 15.4961 2.3902 15.4878C2.33849 15.4961 2.28581 15.5004 2.23237 15.5004L1.49902 15.5004C0.946737 15.5004 0.499023 14.9227 0.499023 14.2101L0.499023 7.7907C0.499023 7.07807 0.946739 6.50037 1.49902 6.50037L2.23237 6.50037C2.93192 6.50037 3.27522 7.23212 3.27522 8.13477L3.27522 12.7627" stroke="#CD342B"/>
</svg>
